<?xml version="1.0" encoding="UTF-8"?>
<svg xmlns="http://www.w3.org/2000/svg" xmlns:xlink="http://www.w3.org/1999/xlink" viewBox="0 0 48 48" width="48px" height="48px">
<g id="surface13929233">
<path style=" stroke:none;fill-rule:nonzero;fill:rgb(100%,78.431374%,2.745098%);fill-opacity:1;" d="M 6 10 L 6 38 C 6 40.210938 7.789062 42 10 42 L 38 42 C 40.210938 42 42 40.210938 42 38 L 42 10 C 42 7.789062 40.210938 6 38 6 L 10 6 C 7.789062 6 6 7.789062 6 10 Z M 27.332031 24.902344 L 23.097656 24.902344 L 23.097656 38 L 19.683594 38 L 19.683594 24.902344 L 15.535156 24.902344 L 15.535156 22 L 27.332031 22 Z M 27.996094 37.253906 L 27.996094 33.75 C 27.996094 33.75 29.90625 35.191406 32.203125 35.191406 C 34.5 35.191406 34.410156 33.691406 34.410156 33.484375 C 34.410156 31.308594 27.90625 31.308594 27.90625 26.484375 C 27.90625 19.921875 37.382812 22.511719 37.382812 22.511719 L 37.265625 25.628906 C 37.265625 25.628906 35.675781 24.570312 33.878906 24.570312 C 32.085938 24.570312 31.4375 25.425781 31.4375 26.335938 C 31.4375 28.691406 38 28.453125 38 33.191406 C 38 40.488281 27.996094 37.253906 27.996094 37.253906 Z M 27.996094 37.253906 "/>
</g>
</svg>
